<?xml version="1.0" standalone="no"?>
<!DOCTYPE svg PUBLIC "-//W3C//DTD SVG 20010904//EN"
 "http://www.w3.org/TR/2001/REC-SVG-20010904/DTD/svg10.dtd">
<svg version="1.0" xmlns="http://www.w3.org/2000/svg"
 width="75.000000pt" height="75.000000pt" viewBox="0 0 75.000000 75.000000"
 preserveAspectRatio="xMidYMid meet">
<metadata>
Created by potrace 1.14, written by Peter Selinger 2001-2017
</metadata>
<g transform="translate(0.000000,75.000000) scale(0.100000,-0.100000)"
fill="#000000" stroke="none">
<path d="M325 703 c-33 -20 -105 -59 -160 -89 l-100 -53 -5 -181 c-6 -206 -13
-186 90 -242 36 -19 81 -44 100 -55 19 -11 59 -32 88 -48 l52 -28 43 22 c72
38 192 104 196 107 2 2 3 85 3 185 -2 210 14 181 -140 261 l-103 53 -103 -54
c-150 -79 -138 -63 -138 -183 0 -57 1 -116 1 -133 1 -28 9 -34 124 -94 l122
-63 58 33 57 33 -2 156 c-3 152 -3 155 -25 158 -27 4 -25 18 -27 -151 -1 -109
-4 -140 -16 -147 -8 -5 -16 -7 -18 -5 -2 2 -4 63 -5 137 -2 126 -3 133 -22
133 -19 0 -20 -7 -20 -137 0 -102 -3 -138 -12 -138 -20 0 -23 14 -24 118 -1
90 -3 101 -20 105 -21 6 -22 4 -21 -110 0 -40 -3 -73 -7 -73 -19 0 -28 28 -30
84 -2 67 -4 71 -26 63 -11 -5 -15 -21 -15 -59 -1 -49 -2 -52 -16 -33 -9 12
-11 21 -4 23 5 2 7 9 3 15 -9 16 -11 47 -3 52 4 2 5 28 3 57 l-3 53 96 53 96
53 94 -53 95 -53 -2 -81 c-1 -45 2 -87 5 -93 4 -6 3 -11 -2 -11 -5 0 -6 -17
-2 -40 4 -22 4 -40 0 -40 -4 0 -5 -10 -3 -22 3 -20 -8 -30 -92 -73 l-96 -50
-42 23 c-23 13 -81 44 -129 68 -48 25 -94 51 -101 58 -11 11 -15 168 -8 298 1
11 44 40 120 82 66 36 125 66 130 66 6 0 11 4 11 9 0 16 34 5 116 -39 167 -89
184 -101 185 -123 0 -12 0 -93 0 -179 0 -161 3 -171 38 -149 10 7 13 44 13
172 0 90 -1 173 -1 185 -1 20 -22 33 -221 142 -25 14 -49 28 -55 31 -44 30
-60 29 -120 -6z"/>
</g>
</svg>
